<svg xmlns="http://www.w3.org/2000/svg" width="171.09" height="36.337" viewBox="0 0 171.09 36.337"><g transform="translate(-1584 212)"><g transform="translate(1584 -212.487)"><path d="M0,6.734H5.16V9.181a6.59,6.59,0,0,1,5.365-2.769,5.5,5.5,0,0,1,5.126,2.737,7.65,7.65,0,0,1,5.975-2.737c3.837,0,6.145,2.189,6.145,6.344V23.994H22.61V14.365c0-2.318-1.087-3.51-3.022-3.51s-3.123,1.191-3.123,3.51v9.629h-5.16V14.365c0-2.318-1.087-3.51-3.022-3.51S5.16,12.047,5.16,14.365v9.629H0V6.734Z" fill="#fff" fill-rule="evenodd"/><path d="M44.237,15.461V15.4a4.7,4.7,0,0,0-4.787-4.766,4.532,4.532,0,0,0-4.719,4.7V15.4a4.7,4.7,0,0,0,4.787,4.766,4.531,4.531,0,0,0,4.719-4.7m-14.6,0V15.4c0-4.959,4.21-8.984,9.879-8.984,5.636,0,9.813,3.96,9.813,8.919V15.4c0,4.96-4.211,8.985-9.88,8.985-5.636,0-9.812-3.961-9.812-8.92" fill="#fff" fill-rule="evenodd"/><path d="M65.248,15.4v-.064a4.442,4.442,0,1,0-8.86,0V15.4a4.442,4.442,0,1,0,8.86,0m-14.021,0v-.064c0-5.765,3.972-8.92,8.284-8.92a7.127,7.127,0,0,1,5.67,2.576V.487h5.16V23.994H65.18V21.514a6.789,6.789,0,0,1-5.67,2.8c-4.244,0-8.284-3.156-8.284-8.92" fill="#fff" fill-rule="evenodd"/><path d="M92.211,6.734h5.16v3.478c1.053-2.384,2.75-3.929,5.806-3.8v5.12H102.9c-3.428,0-5.534,1.964-5.534,6.086v6.377h-5.16Z" fill="#fff" fill-rule="evenodd"/><path d="M105.3,6.734h5.161V9.181a6.522,6.522,0,0,1,5.329-2.769c3.9,0,6.18,2.447,6.18,6.408V23.994h-5.16V14.365c0-2.318-1.155-3.51-3.124-3.51s-3.225,1.191-3.225,3.51v9.629H105.3Z" fill="#fff" fill-rule="evenodd"/><path d="M124.326,4.834h5.432V.487h-5.432Z" fill="#fff" fill-rule="evenodd"/><path d="M124.462,23.994h5.16V6.734h-5.16Z" fill="#fff" fill-rule="evenodd"/><path d="M81.293,10.34a3.729,3.729,0,0,1,3.769,3.284H77.437a3.877,3.877,0,0,1,3.855-3.284m8.86,5.442c0-4.895-2.783-9.37-8.86-9.37a8.809,8.809,0,0,0-9,8.984v.065c0,5.281,4.04,8.919,9.506,8.919a9.3,9.3,0,0,0,7.435-3.22l-2.953-2.479a6.132,6.132,0,0,1-4.414,1.771,4.175,4.175,0,0,1-4.447-3.381H90.086c.034-.45.067-.9.067-1.288" fill="#fff" fill-rule="evenodd"/><path d="M147.65,10.179V6.734H132.135v3.961h9.1l-9.4,9.854v3.446H134.4Z" fill="#fff" fill-rule="evenodd"/><path d="M157.7,20.451c-.061,0-.121,0-.181-.006l3.344,3.478a8.8,8.8,0,0,0,4.2-2.763l-2.953-2.479a6.129,6.129,0,0,1-4.414,1.771" fill="#fff" fill-rule="evenodd"/><path d="M153.271,13.625a3.877,3.877,0,0,1,3.856-3.284,3.728,3.728,0,0,1,3.768,3.284Zm3.856-7.213a8.755,8.755,0,0,0-8.167,5.13l5.316,5.528H165.92c.033-.45.067-.9.067-1.288,0-4.895-2.783-9.37-8.86-9.37Z" fill="#fff" fill-rule="evenodd"/><path d="M142.693,24h4.957V20.033h-4.957Z" fill="#fec14b" fill-rule="evenodd"/><path d="M0,36.745V31.289H1.318v2.217H3.6V31.289H4.913v5.457H3.6V34.479H1.318v2.266Z" fill="#fff" fill-rule="evenodd"/><path d="M9.792,35.864c1.026,0,1.505-.831,1.505-1.847S10.8,32.17,9.784,32.17,8.279,33,8.279,34.017s.494,1.847,1.513,1.847m0-4.653a2.634,2.634,0,0,1,2.839,2.806,2.64,2.64,0,0,1-2.847,2.806,2.634,2.634,0,0,1-2.839-2.806,2.64,2.64,0,0,1,2.847-2.806" fill="#fff" fill-rule="evenodd"/><path d="M20.85,31.289v5.457h-1.3v-3.6h-.015l-1.236,3.6H17.187l-1.236-3.588h-.015v3.588H14.663V31.289h1.775l1.326,3.929h.015L19.1,31.289Z" fill="#fff" fill-rule="evenodd"/><path d="M23.106,36.745V31.289h4.022v.966H24.417v1.257h2.352v.959H24.417v1.307h2.764v.966Z" fill="#fff" fill-rule="evenodd"/><path d="M32.644,36.745V31.289H36.2v.39H33.108V33.8h2.726v.39H33.108v2.167h3.146v.39Z" fill="#fff" fill-rule="evenodd"/><path d="M44.1,31.289v5.457h-.465V31.9h-.015l-2.1,4.846h-.434l-2.1-4.831H38.96v4.831H38.5V31.289h.682l2.112,4.86h.015l2.1-4.86Z" fill="#fff" fill-rule="evenodd"/><path d="M49.006,33.967a.858.858,0,1,0,0-1.712H47.838v1.712Zm.127-2.679a1.844,1.844,0,1,1-.023,3.645H47.838v1.812H46.52V31.289Z" fill="#fff" fill-rule="evenodd"/><path d="M55.787,35.864c1.026,0,1.505-.831,1.505-1.847S56.8,32.17,55.779,32.17s-1.505.831-1.505,1.847.494,1.847,1.513,1.847m0-4.653a2.634,2.634,0,0,1,2.839,2.806,2.843,2.843,0,0,1-5.685,0,2.64,2.64,0,0,1,2.847-2.806" fill="#fff" fill-rule="evenodd"/><path d="M68.178,31.289,66.56,36.746H65.144l-1-3.716h-.015l-1,3.716H61.684l-1.618-5.457h1.379L62.478,35.2h.015l.958-3.915h1.416l.959,3.872h.015l1.011-3.872Z" fill="#fff" fill-rule="evenodd"/><path d="M69.978,36.745V31.289H74v.966H71.289v1.257h2.352v.959H71.289v1.307h2.764v.966Z" fill="#fff" fill-rule="evenodd"/><path d="M77.357,33.676h1.228a.712.712,0,1,0,0-1.421H77.357Zm1.026.952H77.357v2.117H76.039V31.289h2.7c1.124,0,1.932.575,1.932,1.592a1.518,1.518,0,0,1-1.049,1.463l1.213,2.4H79.387Z" fill="#fff" fill-rule="evenodd"/><path d="M88.445,31.289v5.457h-.464V31.9h-.015l-2.1,4.846h-.434l-2.1-4.831h-.015v4.831H82.85V31.289h.682l2.113,4.86h.014l2.1-4.86Z" fill="#fff" fill-rule="evenodd"/><path d="M91.031,36.745V31.289h3.558v.39H91.5V33.8h2.726v.39H91.5v2.167h3.146v.39Z" fill="#fff" fill-rule="evenodd"/><path d="M101.376,31.289v5.457h-.411l-3.6-4.739h-.015v4.739H96.89V31.289h.479L100.9,35.95h.015V31.289Z" fill="#fff" fill-rule="evenodd"/><path d="M105.5,36.745V31.679h-2.112v-.39h4.689v.39h-2.112v5.066Z" fill="#fff" fill-rule="evenodd"/><path d="M109.3,32.119a.194.194,0,0,0,.075.118.4.4,0,0,0,.243.065c.158,0,.258-.067.258-.174,0-.074-.053-.122-.162-.15l-.25-.061a.406.406,0,0,1-.245-.126.32.32,0,0,1-.077-.213c0-.221.184-.368.461-.368a.593.593,0,0,1,.358.107.285.285,0,0,1,.11.159l-.223.052a.225.225,0,0,0-.243-.139c-.135,0-.223.059-.223.151,0,.073.058.121.182.15l.222.052a.436.436,0,0,1,.274.152.328.328,0,0,1,.064.2c0,.235-.206.387-.519.387a.657.657,0,0,1-.4-.116.364.364,0,0,1-.13-.2Z" fill="#fff" fill-rule="evenodd"/><path d="M111.358,32.463v-1.08l-.36,1.08h-.123l-.361-1.08v1.08h-.191V31.23h.366l.272.8.269-.8h.368v1.234Z" fill="#fff" fill-rule="evenodd"/><path d="M167.453,7.441a.39.39,0,0,0-.431-.278c-.215,0-.337.077-.337.207s.089.2.356.247a1.829,1.829,0,0,1,.65.2.649.649,0,0,1,.319.556.754.754,0,0,1-.363.627,1.28,1.28,0,0,1-.654.151,1.177,1.177,0,0,1-.709-.2.749.749,0,0,1-.3-.451l.534-.116a.454.454,0,0,0,.5.328c.246,0,.4-.095.4-.246s-.1-.2-.43-.268a1.731,1.731,0,0,1-.573-.183.591.591,0,0,1-.3-.535.679.679,0,0,1,.253-.542.945.945,0,0,1,.649-.2,1.088,1.088,0,0,1,.65.18.731.731,0,0,1,.274.373Z" fill="#fff" fill-rule="evenodd"/><path d="M168.877,7.2V9.118h-.486V6.769h.9l.434,1.405.461-1.405h.9V9.118h-.583V7.2l-.623,1.916h-.4Z" fill="#fff" fill-rule="evenodd"/></g></g></svg>